<?xml version="1.0" encoding="UTF-8" standalone="no"?>
<svg
   xmlns:dc="http://purl.org/dc/elements/1.1/"
   xmlns:cc="http://creativecommons.org/ns#"
   xmlns:rdf="http://www.w3.org/1999/02/22-rdf-syntax-ns#"
   xmlns:svg="http://www.w3.org/2000/svg"
   xmlns="http://www.w3.org/2000/svg"
   xmlns:sodipodi="http://sodipodi.sourceforge.net/DTD/sodipodi-0.dtd"
   xmlns:inkscape="http://www.inkscape.org/namespaces/inkscape"
   version="1.1"
   id="Layer_1"
   x="0px"
   y="0px"
   viewBox="0 0 328.15677 210.30536"
   xml:space="preserve"
   sodipodi:docname="icon.svg"
   width="328.15677"
   height="210.30536"
   inkscape:version="0.92.4 (5da689c313, 2019-01-14)"><metadata
   id="metadata31"><rdf:RDF><cc:Work
       rdf:about=""><dc:format>image/svg+xml</dc:format><dc:type
         rdf:resource="http://purl.org/dc/dcmitype/StillImage" /><dc:title></dc:title></cc:Work></rdf:RDF></metadata><defs
   id="defs29" /><sodipodi:namedview
   pagecolor="#ffffff"
   bordercolor="#666666"
   borderopacity="1"
   objecttolerance="10"
   gridtolerance="10"
   guidetolerance="10"
   inkscape:pageopacity="0"
   inkscape:pageshadow="2"
   inkscape:window-width="1687"
   inkscape:window-height="1150"
   id="namedview27"
   showgrid="false"
   inkscape:zoom="1.18"
   inkscape:cx="385.277"
   inkscape:cy="201.90867"
   inkscape:window-x="1061"
   inkscape:window-y="274"
   inkscape:window-maximized="0"
   inkscape:current-layer="Layer_1" />
<g
   id="g24"
   transform="translate(-13.053608,-222.11178)">
 
 
 
 
 <path
   d="m 108.4,387.2 c 0.1,-2.7 0.1,-5.4 0.3,-8.2 0.3,-4.7 -1,-10.4 1.3,-13.8 3.4,-5.1 9.3,-8.4 14.1,-12.6 1.4,-1.2 3,-2.4 3.9,-4 5.1,-9 10.1,-18.2 13.3,-28.1 0.5,-1.5 1.4,-2.8 2.2,-4.2 4.7,-7.7 6.4,-16.4 9.1,-24.9 1.2,-3.9 2.5,-7.9 4.6,-11.3 1.4,-2.4 3.8,-4.9 6.3,-5.6 5.8,-1.7 9.6,1.8 9.8,8.1 0,2.4 0.1,4.8 -0.3,7.1 -0.8,5 0,5.9 5.1,5.5 3.4,-0.2 6.8,0.2 10.2,0.3 2.4,0.1 4.8,0.5 7.1,0.2 2.8,-0.4 5.8,-4.3 8,-2.5 5.3,4.2 12.5,6.2 16,12.6 2.3,4.1 3.9,8.6 6.1,12.8 3.2,5.9 2.9,13 7.1,18.5 -1.1,8.6 0.7,17.3 -2.3,25.8 -2.8,7.8 -4.5,15.9 -6.7,23.9 -0.1,0.3 -0.7,0.6 -0.7,0.7 5,7.5 -1.9,11.5 -4.6,16.9 -2.6,5.1 -5.8,9.9 -8.1,14.9 -3.6,7.8 -10.9,9.6 -17.3,13.1 -0.3,0.2 -2.1,-1.4 -2.2,-2.2 -0.8,-9.7 2.6,-18.3 6.6,-27 2.4,-5.1 5.5,-10.2 5,-16.4 -0.1,-0.7 -0.1,-1.9 0.1,-2 5.5,-1.3 6.5,-5.2 6.9,-10.3 0.3,-3.9 2.2,-8 4.2,-11.5 1.5,-2.5 2.2,-3.6 -1.3,-3.9 -0.3,0 -0.4,-0.5 -0.7,-0.7 -1.9,-1.1 -3.8,-2.2 -5.7,-3.3 -2.1,-1.2 -5.9,-2.5 -5.9,-3.8 0,-5.6 -3.2,0.8 -4.3,-1.5 -2.5,-5.4 -9.3,-2.1 -12.8,-5.7 -10.3,-1.4 -20.1,0.5 -29.8,3.8 -0.8,0.3 -11.2,8.1 -11.6,8.9 -0.6,1.1 -1.4,2.4 -1.3,3.5 0.5,7.1 -5.5,12.5 -4.8,19.6 -5.2,4.7 -5.8,11.9 -9.7,17.3 -1.4,2 -3.4,4.6 -3.2,6.7 0.4,4.7 -2.7,6.6 -5.4,9 -0.8,0.8 -2.1,1.8 -2.9,1.6 -1.5,-0.3 -3.5,-1.1 -4,-2.2 -1.2,-2.5 -2.1,-5.4 -2.1,-8.2 -0.3,-5.4 0.2,-11.1 0.4,-16.9 z"
   id="path10"
   inkscape:connector-curvature="0" />
 
 <path
   d="m 340.8,340.5 c 1.8,8 -2.5,15.1 -9.4,21 -9.1,7.8 -8.8,12 -25,16.1 -6.1,6.5 -13.8,3 -20.9,3.3 -3.5,0.1 -4.8,-2 -5.3,-5.6 -0.8,-6.5 2.3,-12.1 3.3,-18.2 0.4,-2.7 1.8,-5.9 3.9,-7.4 3.5,-2.5 8.2,-3.3 11.8,-5.7 2.2,-1.5 4.7,2.3 6.1,-1 3.1,2.2 6.3,2 9.5,0.3 3.2,-1.6 4.5,-6 8.8,-6.1 0.2,0 0.8,-2.7 0.3,-3.2 -3.8,-4 -6.8,-8.7 -13,-10.1 -5,-1.1 -7.7,-6.1 -11.1,-9.6 -3.4,-3.4 -4.7,-2.7 -7.9,1 -4,4.8 -3.7,10.8 -5.9,16 -1.7,4.1 -0.6,9.8 -3,13 -3.1,4.1 0,9.3 -3.8,13 -1.3,1.2 -0.4,4.5 -0.7,6.8 -0.4,2.9 -1,5.8 -1.5,8.6 -0.4,2.4 3.2,5.3 -1.1,7.1 0.5,5.6 1.1,11.9 6.2,14.6 6.4,3.4 11.3,8.4 17.1,12.4 0.8,0.5 1.6,1.1 2.5,1.3 5.8,1.8 7.2,7.8 11.1,11.5 1,0.9 2,4.5 -1.8,5.2 -2.2,0.4 -4.2,1.6 -6.4,1.7 -3.4,0.1 -6.1,1.1 -8,3.9 -0.4,0.6 -1.3,1.5 -1.5,1.5 -5.2,-3.4 -11.1,-1.6 -16.7,-2 -6.2,-0.5 -12.9,-3.2 -17.8,-7 -3,-2.4 -5.4,-4 -4.5,-8.4 0.8,-3.5 -0.4,-7.3 3.4,-10 2,-1.4 4.3,-4 4.4,-6.1 0.1,-3.8 5.3,-6.4 1.8,-11.4 -2.1,-3 -1.3,-8.1 -1.9,-12.3 -0.5,-3.5 -1,-7 -2.1,-10.3 -1,-2.9 -5.3,-2.6 -6.3,-6.5 -0.7,-2.7 -2,-3.3 1.6,-4.9 1.9,-0.9 6,-4.3 2.3,-8.5 -0.8,-1 -0.3,-3.2 -0.3,-4.9 0,-5.9 3.8,-11.3 2.6,-17.4 4.1,-3.8 3.2,-10.5 8.1,-14 1.4,-1 2.3,-3.1 2.7,-4.9 2.6,-11.2 12,-18 17.4,-27.3 0.4,-0.6 2.1,-1.3 2.4,-1 3.8,3.4 10.9,1.8 12.7,8.5 0.5,1.7 2.6,3.9 4.2,4.1 3.4,0.4 2.8,2.4 2.5,4.3 -0.4,3.1 1,4.9 3.5,6.4 2.2,1.2 4.5,4.3 6.3,3.9 2.5,-0.5 4.2,-0.2 6.6,0.4 7.1,1.8 8.3,2.9 8.6,10.5 0.1,4.7 1.3,8.8 3,12 0.7,1.4 1.3,3 1.3,4.5 0.4,3.1 0.1,6.2 -0.1,10.9 z"
   id="path14"
   inkscape:connector-curvature="0" />
 
 <path
   d="m 32.8,422 c 1.5,-1.2 -0.7,-5.5 -2.3,-7.1 -3.6,-3.5 -5.1,-2.1 -6.7,1.8 -0.7,1.6 -2.5,3.6 -3.1,-0.8 -0.4,-2.6 -2.7,-5.1 -4.4,-7.3 -3.9,-5.1 -4.7,-11.4 -0.1,-15.8 5.7,-5.4 8.2,-12 10.6,-19.1 1,-3.1 2.1,-7.6 7.4,-8 1.3,-0.1 3.8,-2.1 3,-4.6 -1.2,-3.6 5.2,-3.8 3.3,-6.9 -2.4,-3.8 1.2,-4.4 2.5,-6.4 0.3,-0.5 1,-1.2 0.8,-1.6 -1.2,-4.6 2.4,-8.1 2.5,-12.3 0.2,-5.1 0.4,-10.2 0.5,-15.3 0,-1.2 -0.9,-2.3 -1.2,-3.5 -2.3,-8.8 3.4,-20.2 11.7,-24 5.2,-2.3 14.7,-1.4 20,0.6 4.6,1.7 5.1,6.3 7.9,9.2 1.8,1.9 0.9,6.3 1.1,8.5 -1,4.2 -0.4,7.3 -2.2,10.6 -1.6,2.8 -1.9,7.6 0.4,11.5 1,1.6 0.7,10.8 0.3,13.3 -1,5.4 1.6,11.5 -2.6,16.4 2.1,3.4 2.4,6.8 0.3,10.3 4.3,3.1 -0.4,5.6 -1.2,7.6 -3.5,8.8 -8.5,16.6 -17.7,20.8 -5.8,2.6 -5.7,2.7 -4.2,8.3 0.4,1.7 0.3,5.1 -0.2,5.3 -7,1.8 -2.3,4.3 -0.5,6.6 1.4,1.7 0.4,1.7 -1.1,2.2 -3,0.9 -5.8,2.3 -8.9,3.1 -0.7,0.2 -2,-1.2 -2.7,-2.1 -0.2,-0.3 0.6,-1.4 0.9,-2.1 0.2,-0.3 0.5,-0.4 0.7,-0.7 1,-1.5 4.9,0.2 3.9,-3.2 -0.6,-2.2 -2.2,-4.1 -5.1,-3.8 -1.3,0.1 -2.7,0 -4.1,-0.1 -2.2,-0.3 -3.2,0.6 -2.9,2.8 0.5,4.6 -1.6,5.3 0.6,9.9 0.3,0.6 -2.4,5 -3.4,6.2 -0.8,-0.8 -1.5,-4.1 -1.8,-5"
   id="path18"
   inkscape:connector-curvature="0" />
 <path
   d="m 98.6,240.8 c -2.1,6.1 -4.3,11.8 -10.5,14.8 -4.3,2.1 -8.6,3 -12.6,-0.5 -1.2,-1.1 -2.1,-2.7 -3.1,-4 -1.2,1.2 -2.3,2.9 -3.8,3.3 -1.7,0.4 -3.7,-0.2 -5.4,-0.8 -4.9,-1.6 -5.4,-1.5 -8.2,2.3 -1.1,1.5 -2.1,4.1 -3.4,4.4 -3.3,0.5 -6.7,0 -10.1,-0.4 -0.4,0 -1.1,-2.1 -0.7,-2.5 4.2,-6 6.9,-13.1 12.6,-18.1 4.6,-4.1 9,-8.2 13.4,-12.5 6.9,-6.8 6.2,-4.2 14.9,-4.2 9.7,0 12.4,7.4 16.4,13.7 0.8,1.2 0.4,3.1 0.5,4.5 z"
   id="path20"
   inkscape:connector-curvature="0" />
 
</g>
</svg>